<svg width="24" height="24" viewBox="0 0 24 24" fill="none" xmlns="http://www.w3.org/2000/svg">
<path fill-rule="evenodd" clip-rule="evenodd" d="M2.06349 12C2.6578 10.8958 3.79588 9.33029 5.40457 8.0117C7.12107 6.60473 9.34606 5.5 12.0001 5.5C14.6542 5.5 16.8791 6.60473 18.5956 8.0117C20.2043 9.33029 21.3424 10.8958 21.9367 12C21.3424 13.1042 20.2043 14.6697 18.5956 15.9883C16.8791 17.3953 14.6542 18.5 12.0001 18.5C9.34606 18.5 7.12107 17.3953 5.40457 15.9883C3.79588 14.6697 2.6578 13.1042 2.06349 12ZM1.04165 12.1996C1.04597 12.2095 1.05062 12.2193 1.05559 12.229C1.66894 13.4536 2.93566 15.2576 4.77065 16.7617C6.61248 18.2714 9.05416 19.5 12.0001 19.5C14.9461 19.5 17.3877 18.2714 19.2296 16.7617C21.0646 15.2576 22.3313 13.4535 22.9447 12.2289C22.9497 12.2191 22.9545 12.209 22.9589 12.1988C22.9869 12.1343 23.0003 12.0667 23.0002 12C23.0003 11.9333 22.9869 11.8657 22.9589 11.8012C22.9545 11.791 22.9497 11.7809 22.9447 11.7711C22.3313 10.5465 21.0646 8.74242 19.2296 7.2383C17.3877 5.7286 14.9461 4.5 12.0001 4.5C9.05416 4.5 6.61248 5.7286 4.77065 7.2383C2.93566 8.74239 1.66894 10.5464 1.05559 11.771C1.05062 11.7807 1.04597 11.7905 1.04165 11.8004C1.01339 11.8652 0.999948 11.9331 1 12C0.999948 12.0669 1.01339 12.1348 1.04165 12.1996Z" fill="#121212"/>
<circle cx="12" cy="12" r="3.5" stroke="#121212"/>
</svg>
