<svg width="110" height="22" viewBox="0 0 110 22" fill="none" xmlns="http://www.w3.org/2000/svg">
<path d="M9.95358 3.21972C10.2836 2.20662 11.7169 2.20662 12.0458 3.21972L13.2228 6.84092C13.2947 7.06146 13.4345 7.25362 13.6222 7.38994C13.8098 7.52626 14.0358 7.59975 14.2678 7.59993H18.076C19.1419 7.59993 19.5841 8.96392 18.7228 9.59093L15.6428 11.8283C15.4547 11.9648 15.3147 12.1572 15.2427 12.3782C15.1708 12.5991 15.1707 12.8371 15.2424 13.0581L16.4194 16.6793C16.7494 17.6924 15.5889 18.5361 14.7254 17.9091L11.6454 15.6717C11.4575 15.5353 11.2313 15.4619 10.9991 15.4619C10.767 15.4619 10.5408 15.5353 10.3529 15.6717L7.27288 17.9091C6.41048 18.5361 5.25108 17.6924 5.57998 16.6793L6.75698 13.0581C6.82867 12.8371 6.82854 12.5991 6.75661 12.3782C6.68468 12.1572 6.54464 11.9648 6.35658 11.8283L3.27768 9.59203C2.41638 8.96503 2.85968 7.60103 3.92448 7.60103H7.73158C7.96373 7.60109 8.18995 7.5277 8.37785 7.39136C8.56576 7.25503 8.70571 7.06274 8.77768 6.84202L9.95468 3.22082L9.95358 3.21972Z" fill="#F0CC84"/>
<path d="M31.9536 3.21972C32.2836 2.20662 33.7169 2.20662 34.0458 3.21972L35.2228 6.84092C35.2947 7.06146 35.4345 7.25362 35.6222 7.38994C35.8098 7.52626 36.0358 7.59975 36.2678 7.59993H40.076C41.1419 7.59993 41.5841 8.96392 40.7228 9.59093L37.6428 11.8283C37.4547 11.9648 37.3147 12.1572 37.2427 12.3782C37.1708 12.5991 37.1707 12.8371 37.2424 13.0581L38.4194 16.6793C38.7494 17.6924 37.5889 18.5361 36.7254 17.9091L33.6454 15.6717C33.4575 15.5353 33.2313 15.4619 32.9991 15.4619C32.767 15.4619 32.5408 15.5353 32.3529 15.6717L29.2729 17.9091C28.4105 18.5361 27.2511 17.6924 27.58 16.6793L28.757 13.0581C28.8287 12.8371 28.8285 12.5991 28.7566 12.3782C28.6847 12.1572 28.5446 11.9648 28.3566 11.8283L25.2777 9.59203C24.4164 8.96503 24.8597 7.60103 25.9245 7.60103H29.7316C29.9637 7.60109 30.19 7.5277 30.3779 7.39136C30.5658 7.25503 30.7057 7.06274 30.7777 6.84202L31.9547 3.22082L31.9536 3.21972Z" fill="#F0CC84"/>
<path d="M53.9536 3.21972C54.2836 2.20662 55.7169 2.20662 56.0458 3.21972L57.2228 6.84092C57.2947 7.06146 57.4345 7.25362 57.6222 7.38994C57.8098 7.52626 58.0358 7.59975 58.2678 7.59993H62.076C63.1419 7.59993 63.5841 8.96392 62.7228 9.59093L59.6428 11.8283C59.4547 11.9648 59.3147 12.1572 59.2427 12.3782C59.1708 12.5991 59.1707 12.8371 59.2424 13.0581L60.4194 16.6793C60.7494 17.6924 59.5889 18.5361 58.7254 17.9091L55.6454 15.6717C55.4575 15.5353 55.2313 15.4619 54.9991 15.4619C54.767 15.4619 54.5408 15.5353 54.3529 15.6717L51.2729 17.9091C50.4105 18.5361 49.2511 17.6924 49.58 16.6793L50.757 13.0581C50.8287 12.8371 50.8285 12.5991 50.7566 12.3782C50.6847 12.1572 50.5446 11.9648 50.3566 11.8283L47.2777 9.59203C46.4164 8.96503 46.8597 7.60103 47.9245 7.60103H51.7316C51.9637 7.60109 52.19 7.5277 52.3779 7.39136C52.5658 7.25503 52.7057 7.06274 52.7777 6.84202L53.9547 3.22082L53.9536 3.21972Z" fill="#F0CC84"/>
<path d="M75.9536 3.21972C76.2836 2.20662 77.7169 2.20662 78.0458 3.21972L79.2228 6.84092C79.2947 7.06146 79.4345 7.25362 79.6222 7.38994C79.8098 7.52626 80.0358 7.59975 80.2678 7.59993H84.076C85.1419 7.59993 85.5841 8.96392 84.7228 9.59093L81.6428 11.8283C81.4547 11.9648 81.3147 12.1572 81.2427 12.3782C81.1708 12.5991 81.1707 12.8371 81.2424 13.0581L82.4194 16.6793C82.7494 17.6924 81.5889 18.5361 80.7254 17.9091L77.6454 15.6717C77.4575 15.5353 77.2313 15.4619 76.9991 15.4619C76.767 15.4619 76.5408 15.5353 76.3529 15.6717L73.2729 17.9091C72.4105 18.5361 71.2511 17.6924 71.58 16.6793L72.757 13.0581C72.8287 12.8371 72.8285 12.5991 72.7566 12.3782C72.6847 12.1572 72.5446 11.9648 72.3566 11.8283L69.2777 9.59203C68.4164 8.96503 68.8597 7.60103 69.9245 7.60103H73.7316C73.9637 7.60109 74.19 7.5277 74.3779 7.39136C74.5658 7.25503 74.7057 7.06274 74.7777 6.84202L75.9547 3.22082L75.9536 3.21972Z" fill="#F0CC84"/>
<path d="M97.9536 3.21972C98.2836 2.20662 99.7169 2.20662 100.046 3.21972L101.223 6.84092C101.295 7.06146 101.434 7.25362 101.622 7.38994C101.81 7.52626 102.036 7.59975 102.268 7.59993H106.076C107.142 7.59993 107.584 8.96392 106.723 9.59093L103.643 11.8283C103.455 11.9648 103.315 12.1572 103.243 12.3782C103.171 12.5991 103.171 12.8371 103.242 13.0581L104.419 16.6793C104.749 17.6924 103.589 18.5361 102.725 17.9091L99.6454 15.6717C99.4575 15.5353 99.2313 15.4619 98.9991 15.4619C98.767 15.4619 98.5408 15.5353 98.3529 15.6717L95.2729 17.9091C94.4105 18.5361 93.2511 17.6924 93.58 16.6793L94.757 13.0581C94.8287 12.8371 94.8285 12.5991 94.7566 12.3782C94.6847 12.1572 94.5446 11.9648 94.3566 11.8283L91.2777 9.59203C90.4164 8.96503 90.8597 7.60103 91.9245 7.60103H95.7316C95.9637 7.60109 96.19 7.5277 96.3779 7.39136C96.5658 7.25503 96.7057 7.06274 96.7777 6.84202L97.9547 3.22082L97.9536 3.21972Z" fill="#F0CC84"/>
</svg>
